<svg width="26" height="30" viewBox="0 0 26 30" fill="none" xmlns="http://www.w3.org/2000/svg">
<g clip-path="url(#clip0_2991_7835)" filter="url(#filter0_d_2991_7835)">
<g filter="url(#filter1_d_2991_7835)">
<path fill-rule="evenodd" clip-rule="evenodd" d="M12.9413 10.2238L11.6565 8.96262C10.4807 7.80856 8.56275 7.79646 7.37255 8.93559C6.18237 10.0747 6.17062 11.9336 7.34629 13.0877L8.63111 14.3489L12.8886 18.5283L18.4845 13.1725L18.4996 13.1583C19.6898 12.0191 19.7016 10.1601 18.5258 9.00606C17.3501 7.85201 15.4322 7.83989 14.242 8.97897L12.9413 10.2238ZM12.8728 21.0344L6.0454 14.3328C4.16014 12.4821 4.17915 9.50102 6.08767 7.67438C7.99623 5.84773 11.0718 5.86714 12.9571 7.71774C14.8657 5.89116 17.9412 5.9106 19.8265 7.76118C21.7118 9.61178 21.693 12.5928 19.7845 14.4195L19.7607 14.4421L12.8728 21.0344Z" fill="#8B97AE"/>
<path d="M6.43339 8.0356C8.14685 6.39568 10.9143 6.41314 12.6069 8.07456L12.9527 8.41404L13.3028 8.07896C15.0163 6.43912 17.7837 6.4566 19.4763 8.11801C21.1599 9.77067 21.1434 12.4261 19.4394 14.0576C19.4392 14.0578 19.439 14.058 19.4388 14.0583L19.4163 14.0795L19.4149 14.0809L12.8772 20.3381L6.39567 13.9759C4.71184 12.323 4.72876 9.6671 6.43339 8.0356ZM6.43339 8.0356L6.08767 7.67438L6.43339 8.0356ZM12.0067 8.60579L11.6565 8.96262L12.0067 8.60579C10.6382 7.26255 8.41214 7.2485 7.02683 8.57437L7.02682 8.57438C5.63275 9.90868 5.61894 12.0927 6.99602 13.4445L6.99603 13.4445L8.28084 14.7057L8.28085 14.7057L12.5384 18.8852L12.8842 19.2247L13.2343 18.8896L18.8281 13.5359L18.8303 13.5338L18.8431 13.5216L18.8431 13.5216L18.8453 13.5195C20.2395 12.1852 20.2533 10.001 18.8761 8.64924L18.8761 8.64923C17.5076 7.30601 15.2816 7.29194 13.8963 8.61774L13.8963 8.61775L12.9457 9.5275L12.0067 8.60579Z" stroke="#8B97AE"/>
</g>
</g>
<defs>
<filter id="filter0_d_2991_7835" x="-3.95728" y="0.978882" width="33.7524" height="32.9705" filterUnits="userSpaceOnUse" color-interpolation-filters="sRGB">
<feFlood flood-opacity="0" result="BackgroundImageFix"/>
<feColorMatrix in="SourceAlpha" type="matrix" values="0 0 0 0 0 0 0 0 0 0 0 0 0 0 0 0 0 0 127 0" result="hardAlpha"/>
<feOffset dy="4"/>
<feGaussianBlur stdDeviation="2"/>
<feComposite in2="hardAlpha" operator="out"/>
<feColorMatrix type="matrix" values="0 0 0 0 0 0 0 0 0 0 0 0 0 0 0 0 0 0 0.25 0"/>
<feBlend mode="normal" in2="BackgroundImageFix" result="effect1_dropShadow_2991_7835"/>
<feBlend mode="normal" in="SourceGraphic" in2="effect1_dropShadow_2991_7835" result="shape"/>
</filter>
<filter id="filter1_d_2991_7835" x="0.643799" y="6.31699" width="24.5845" height="22.7174" filterUnits="userSpaceOnUse" color-interpolation-filters="sRGB">
<feFlood flood-opacity="0" result="BackgroundImageFix"/>
<feColorMatrix in="SourceAlpha" type="matrix" values="0 0 0 0 0 0 0 0 0 0 0 0 0 0 0 0 0 0 127 0" result="hardAlpha"/>
<feOffset dy="4"/>
<feGaussianBlur stdDeviation="2"/>
<feComposite in2="hardAlpha" operator="out"/>
<feColorMatrix type="matrix" values="0 0 0 0 0 0 0 0 0 0 0 0 0 0 0 0 0 0 0.25 0"/>
<feBlend mode="normal" in2="BackgroundImageFix" result="effect1_dropShadow_2991_7835"/>
<feBlend mode="normal" in="SourceGraphic" in2="effect1_dropShadow_2991_7835" result="shape"/>
</filter>
<clipPath id="clip0_2991_7835">
<rect width="25.5963" height="24.8095" fill="white" transform="translate(0.19928 0.978882) rotate(0.361613)"/>
</clipPath>
</defs>
</svg>
