<svg width="26" height="26" viewBox="0 0 26 26" fill="none" xmlns="http://www.w3.org/2000/svg">
<path fill-rule="evenodd" clip-rule="evenodd" d="M11.6094 3.12458C12.4045 2.49066 13.5535 2.49791 14.3405 3.14181L22.829 10.087C23.3128 10.4829 23.5903 11.0665 23.5864 11.6801L23.5275 21.0162C23.5202 22.158 22.5595 23.0776 21.3814 23.0701L4.31752 22.9624C3.13951 22.955 2.19038 22.0234 2.19758 20.8815L2.25651 11.5455C2.26038 10.9319 2.54523 10.3518 3.03401 9.9621L11.6094 3.12458ZM12.9649 4.72143L4.38949 11.559L4.33057 20.895L8.59654 20.9219L8.61938 17.304C8.62659 16.1621 9.5874 15.2426 10.7654 15.25L15.0314 15.2769C16.2094 15.2844 17.1585 16.216 17.1513 17.3578L17.1285 20.9758L21.3945 21.0027L21.4534 11.6667L12.9649 4.72143ZM14.9955 20.9623L15.0183 17.3443L10.7524 17.3174L10.7295 20.9354L14.9955 20.9623Z" fill="#8B97AE"/>
</svg>
