<svg width="27" height="26" viewBox="0 0 27 26" fill="none" xmlns="http://www.w3.org/2000/svg">
<path d="M11.1688 15.5849C11.1751 15.0648 11.0463 14.5516 10.7944 14.0923C10.5424 13.633 10.1754 13.2425 9.72702 12.9566C9.27864 12.6707 8.76333 12.4987 8.2285 12.4564C7.69366 12.414 7.15648 12.5027 6.66638 12.7143C6.17628 12.9259 5.74901 13.2536 5.42386 13.6672C5.09871 14.0807 4.88614 14.567 4.8057 15.0812C4.72526 15.5953 4.77953 16.1209 4.96353 16.6095C5.14753 17.0981 5.45534 17.5341 5.85865 17.8773C5.5126 18.1643 5.2338 18.5196 5.0409 18.9195C4.848 19.3194 4.74544 19.7547 4.74008 20.1962L4.7254 22.522C4.72411 22.7276 4.80714 22.9254 4.95623 23.0717C5.10533 23.218 5.30828 23.301 5.52043 23.3023L7.12026 23.3124C7.33241 23.3138 7.53639 23.2334 7.68732 23.0889C7.83825 22.9445 7.92378 22.7478 7.92507 22.5422C7.92637 22.3366 7.84334 22.1389 7.69424 21.9925C7.54515 21.8462 7.3422 21.7632 7.13005 21.7619L6.33013 21.7568L6.33992 20.2063C6.34251 19.795 6.51356 19.4017 6.81542 19.1128C7.11728 18.8239 7.52524 18.6631 7.94954 18.6658C8.37384 18.6685 8.77973 18.8344 9.07793 19.1271C9.37612 19.4198 9.54218 19.8152 9.53959 20.2265L9.52491 22.5523C9.52361 22.7579 9.60664 22.9556 9.75574 23.102C9.90483 23.2483 10.1078 23.3313 10.3199 23.3326C10.5321 23.334 10.7361 23.2536 10.887 23.1091C11.0379 22.9647 11.1234 22.768 11.1247 22.5624L11.1394 20.2366C11.1396 19.795 11.0426 19.3585 10.8547 18.9562C10.6669 18.5539 10.3926 18.1951 10.0502 17.9037C10.3963 17.6167 10.6751 17.2614 10.868 16.8615C11.0609 16.4616 11.1634 16.0264 11.1688 15.5849V15.5849ZM6.36928 15.5546C6.37121 15.2479 6.46693 14.9487 6.64433 14.6948C6.82174 14.441 7.07285 14.2438 7.36592 14.1283C7.65899 14.0128 7.98086 13.9841 8.29082 14.0459C8.60078 14.1077 8.88491 14.2571 9.10728 14.4754C9.32966 14.6937 9.48028 14.9709 9.54011 15.2721C9.59995 15.5733 9.5663 15.8848 9.44342 16.1674C9.32054 16.4499 9.11396 16.6908 8.84979 16.8595C8.58563 17.0282 8.27574 17.1172 7.95932 17.1152C7.53502 17.1126 7.12913 16.9466 6.83094 16.654C6.53274 16.3613 6.36668 15.9658 6.36928 15.5546Z" fill="#8B97AE"/>
<path d="M21.2484 17.9744C21.7439 17.5634 22.0979 17.0155 22.263 16.4039C22.428 15.7924 22.3963 15.1465 22.1721 14.5528C21.9478 13.9591 21.5417 13.4459 21.0082 13.082C20.4747 12.7181 19.8392 12.5209 19.187 12.5167C18.5347 12.5126 17.8968 12.7018 17.3588 13.0589C16.8207 13.4161 16.4082 13.9241 16.1764 14.5149C15.9447 15.1058 15.9048 15.7512 16.0622 16.3648C16.2195 16.9784 16.5666 17.5308 17.0568 17.9479C16.7108 18.2349 16.432 18.5903 16.2391 18.9902C16.0462 19.3901 15.9436 19.8253 15.9383 20.2668L15.9236 22.5927C15.9223 22.7983 16.0053 22.996 16.1544 23.1423C16.3035 23.2887 16.5065 23.3716 16.7186 23.373C16.9308 23.3743 17.1347 23.2939 17.2857 23.1495C17.4366 23.005 17.5221 22.8084 17.5234 22.6027L17.5381 20.2769C17.5407 19.8657 17.7117 19.4723 18.0136 19.1835C18.3155 18.8946 18.7234 18.7338 19.1477 18.7364C19.572 18.7391 19.9779 18.9051 20.2761 19.1977C20.5743 19.4904 20.7404 19.8859 20.7378 20.2971L20.728 21.8477L19.9281 21.8426C19.7159 21.8413 19.5119 21.9217 19.361 22.0661C19.2101 22.2106 19.1246 22.4072 19.1233 22.6128C19.122 22.8185 19.205 23.0162 19.3541 23.1625C19.5032 23.3089 19.7061 23.3918 19.9183 23.3932L21.5181 23.4033C21.7303 23.4046 21.9342 23.3242 22.0852 23.1798C22.2361 23.0353 22.3216 22.8387 22.3229 22.633L22.3376 20.3072C22.3378 19.8657 22.2408 19.4292 22.0529 19.0269C21.8651 18.6246 21.5908 18.2657 21.2484 17.9744V17.9744ZM17.5675 15.6252C17.5694 15.3186 17.6651 15.0194 17.8425 14.7655C18.0199 14.5116 18.271 14.3144 18.5641 14.1989C18.8572 14.0834 19.179 14.0547 19.489 14.1165C19.799 14.1783 20.0831 14.3278 20.3055 14.5461C20.5278 14.7643 20.6785 15.0416 20.7383 15.3427C20.7981 15.6439 20.7645 15.9555 20.6416 16.238C20.5187 16.5206 20.3121 16.7615 20.048 16.9302C19.7838 17.0989 19.4739 17.1879 19.1575 17.1859C18.7332 17.1832 18.3273 17.0173 18.0291 16.7246C17.7309 16.4319 17.5649 16.0365 17.5675 15.6252Z" fill="#8B97AE"/>
<path d="M7.19856 10.908C7.41071 10.9093 7.61469 10.8289 7.76562 10.6844C7.91655 10.54 8.00207 10.3433 8.00337 10.1377L8.03273 5.48604C8.03402 5.28042 8.11955 5.08376 8.27048 4.93931C8.42141 4.79486 8.62539 4.71447 8.83754 4.71581L16.8367 4.76629C17.0489 4.76763 17.2518 4.8506 17.4009 4.99694C17.55 5.14328 17.633 5.341 17.6317 5.54662L17.6219 7.09718C17.6209 7.19975 17.5988 7.30109 17.557 7.39532C17.5152 7.48954 17.4545 7.57479 17.3785 7.64612C17.2286 7.7884 17.027 7.86788 16.8171 7.86741L10.4178 7.82702C10.2056 7.82569 10.0017 7.90608 9.85074 8.05053C9.69981 8.19498 9.61429 8.39164 9.61299 8.59726C9.61169 8.80287 9.69472 9.0006 9.84382 9.14694C9.99292 9.29328 10.1959 9.37625 10.408 9.37758L16.8074 9.41797C17.4438 9.42199 18.0557 9.1808 18.5085 8.74746C18.9613 8.31412 19.2179 7.72413 19.2218 7.10728L19.2316 5.55672C19.2355 4.93987 18.9864 4.34669 18.5391 3.90767C18.0918 3.46865 17.483 3.21975 16.8465 3.21573L8.84732 3.16525C8.21087 3.16123 7.59894 3.40242 7.14614 3.83576C6.69335 4.2691 6.43678 4.85909 6.43289 5.47594L6.40353 10.1276C6.40224 10.3332 6.48527 10.531 6.63436 10.6773C6.78346 10.8236 6.98641 10.9066 7.19856 10.908Z" fill="#8B97AE"/>
</svg>
