<svg width="27" height="26" viewBox="0 0 27 26" fill="none" xmlns="http://www.w3.org/2000/svg">
<path d="M8.40206 21.1519L6.00245 21.1368L6.09052 7.18172L21.2881 7.27764C21.5002 7.27898 21.7042 7.19858 21.8551 7.05413C22.006 6.90969 22.0915 6.71302 22.0928 6.5074C22.0941 6.30179 22.0111 6.10406 21.862 5.95772C21.7129 5.81138 21.51 5.72842 21.2978 5.72708L20.498 5.72203L20.5126 3.39619C20.5139 3.19057 20.4309 2.99284 20.2818 2.8465C20.1327 2.70016 19.9298 2.6172 19.7177 2.61586L6.91975 2.53509C6.70761 2.53375 6.50365 2.61414 6.35272 2.75859C6.2018 2.90304 6.11629 3.0997 6.11499 3.30532L6.10031 5.63116L5.30044 5.62611C5.0883 5.62477 4.88433 5.70517 4.73341 5.84961C4.58249 5.99406 4.49697 6.19072 4.49568 6.39634L4.39781 21.9019C4.39652 22.1076 4.47954 22.3053 4.62863 22.4516C4.77772 22.598 4.98065 22.6809 5.19279 22.6823L8.39227 22.7025C8.60441 22.7038 8.80837 22.6234 8.9593 22.479C9.11022 22.3345 9.19574 22.1379 9.19703 21.9322C9.19833 21.7266 9.1153 21.5289 8.96622 21.3825C8.81713 21.2362 8.6142 21.1532 8.40206 21.1519ZM7.70984 4.09069L18.908 4.16137L18.8982 5.71193L7.70005 5.64126L7.70984 4.09069Z" fill="#8B97AE"/>
<path d="M21.2789 8.8282C21.0667 8.82686 20.8627 8.90726 20.7118 9.05171C20.5609 9.19615 20.4754 9.39282 20.4741 9.59843L20.4007 21.2276L15.6012 21.1973L15.6256 17.3209C15.6269 17.1153 15.5439 16.9176 15.3948 16.7713C15.2457 16.6249 15.0428 16.542 14.8306 16.5406L11.6309 16.5204C11.4188 16.5191 11.2148 16.5995 11.0639 16.7439C10.9129 16.8884 10.8274 17.085 10.8261 17.2907L10.7968 21.9423C10.7955 22.1479 10.8785 22.3457 11.0276 22.492C11.1767 22.6384 11.3796 22.7213 11.5918 22.7227C11.8039 22.724 12.0079 22.6436 12.1588 22.4992C12.3098 22.3547 12.3953 22.158 12.3966 21.9524L12.4211 18.076L14.0209 18.0861L13.9964 21.9625C13.9951 22.1681 14.0782 22.3659 14.2273 22.5122C14.3764 22.6586 14.5793 22.7415 14.7915 22.7429L21.1908 22.7832C21.4029 22.7846 21.6069 22.7042 21.7579 22.5597C21.9088 22.4153 21.9943 22.2186 21.9956 22.013L22.0739 9.60853C22.0752 9.40291 21.9922 9.20519 21.8431 9.05885C21.694 8.91251 21.491 8.82954 21.2789 8.8282Z" fill="#8B97AE"/>
<path d="M18.0796 8.80801L8.48058 8.74743C8.26843 8.74609 8.06445 8.82648 7.91352 8.97093C7.76259 9.11538 7.67707 9.31204 7.67577 9.51766C7.67447 9.72327 7.75751 9.921 7.9066 10.0673C8.0557 10.2137 8.25864 10.2966 8.4708 10.298L18.0698 10.3586C18.282 10.3599 18.4859 10.2795 18.6369 10.1351C18.7878 9.99062 18.8733 9.79395 18.8746 9.58834C18.8759 9.38272 18.7929 9.18499 18.6438 9.03865C18.4947 8.89231 18.2917 8.80935 18.0796 8.80801Z" fill="#8B97AE"/>
<path d="M18.06 11.9091L8.46099 11.8485C8.24884 11.8472 8.04486 11.9276 7.89393 12.0721C7.743 12.2165 7.65748 12.4132 7.65618 12.6188C7.65488 12.8244 7.73791 13.0221 7.88701 13.1685C8.03611 13.3148 8.23905 13.3978 8.4512 13.3991L18.0502 13.4597C18.2624 13.461 18.4663 13.3806 18.6173 13.2362C18.7682 13.0917 18.8537 12.8951 18.855 12.6895C18.8563 12.4838 18.7733 12.2861 18.6242 12.1398C18.4751 11.9934 18.2722 11.9105 18.06 11.9091Z" fill="#8B97AE"/>
</svg>
