<svg width="26" height="26" viewBox="0 0 26 26" fill="none" xmlns="http://www.w3.org/2000/svg">
<path d="M16.1343 6.0974C16.1406 5.57737 16.0137 5.06411 15.7654 4.60485C15.5171 4.1456 15.1553 3.75509 14.7134 3.46926C14.2714 3.18343 13.7635 3.01146 13.2363 2.96917C12.7091 2.92688 12.1796 3.01563 11.6965 3.22725C11.2134 3.43887 10.7922 3.76657 10.4716 4.1802C10.1511 4.59383 9.94151 5.0801 9.86217 5.59427C9.78283 6.10844 9.83628 6.634 10.0176 7.1226C10.1989 7.61119 10.5023 8.04713 10.8998 8.3903C10.5587 8.67734 10.2838 9.0327 10.0937 9.43262C9.90348 9.83253 9.80235 10.2678 9.79703 10.7093C9.79573 10.9149 9.87756 11.1126 10.0245 11.2589C10.1715 11.4053 10.3715 11.4882 10.5806 11.4895C10.7897 11.4908 10.9908 11.4104 11.1396 11.266C11.2884 11.1215 11.3727 10.9248 11.374 10.7192C11.3766 10.308 11.5452 9.91465 11.8428 9.62573C12.1404 9.33681 12.5425 9.17598 12.9608 9.17862C13.379 9.18126 13.7791 9.34715 14.073 9.6398C14.3669 9.93246 14.5306 10.3279 14.528 10.7391C14.5267 10.9447 14.6085 11.1425 14.7554 11.2888C14.9024 11.4351 15.1024 11.5181 15.3116 11.5194C15.5207 11.5207 15.7218 11.4403 15.8705 11.2958C16.0193 11.1514 16.1036 10.9547 16.1049 10.7491C16.1052 10.3076 16.0096 9.87107 15.8244 9.46879C15.6393 9.0665 15.369 8.7077 15.0315 8.41638C15.3726 8.12934 15.6475 7.77398 15.8377 7.37406C16.0279 6.97414 16.129 6.53888 16.1343 6.0974V6.0974ZM11.4034 6.06754C11.4053 5.76087 11.4997 5.46167 11.6746 5.20778C11.8495 4.95388 12.097 4.7567 12.3859 4.64116C12.6748 4.52562 12.9921 4.49691 13.2976 4.55867C13.6031 4.62043 13.8832 4.76988 14.1024 4.98812C14.3215 5.20636 14.47 5.4836 14.5289 5.78476C14.5879 6.08592 14.5547 6.39749 14.4335 6.68007C14.3124 6.96264 14.1087 7.20353 13.8483 7.37227C13.5879 7.54101 13.2825 7.63003 12.9706 7.62806C12.5523 7.62542 12.1522 7.45952 11.8583 7.16687C11.5644 6.87422 11.4008 6.47878 11.4034 6.06754Z" fill="#8B97AE"/>
<path d="M8.965 17.6818C8.97125 17.1618 8.84439 16.6485 8.59609 16.1893C8.34779 15.73 7.98602 15.3395 7.54407 15.0537C7.10212 14.7678 6.59419 14.5959 6.067 14.5536C5.53981 14.5113 5.01029 14.6 4.52718 14.8117C4.04406 15.0233 3.62285 15.351 3.30231 15.7646C2.98177 16.1782 2.77219 16.6645 2.69286 17.1787C2.61352 17.6928 2.66697 18.2184 2.8483 18.707C3.02963 19.1956 3.333 19.6315 3.73051 19.9747L3.5641 20.1055C3.26948 20.3918 3.03515 20.7325 2.87448 21.1079C2.71381 21.4834 2.62996 21.8863 2.62772 22.2937C2.62642 22.4993 2.70825 22.697 2.8552 22.8433C3.00215 22.9897 3.20219 23.0726 3.41131 23.0739C3.62044 23.0753 3.82151 22.9948 3.97029 22.8504C4.11908 22.7059 4.2034 22.5092 4.2047 22.3036C4.20729 21.8924 4.37593 21.4991 4.6735 21.2101C4.97108 20.9212 5.37322 20.7604 5.79146 20.763C6.20971 20.7657 6.60979 20.9316 6.90369 21.2242C7.1976 21.5169 7.36125 21.9123 7.35866 22.3235C7.35736 22.5292 7.43919 22.7269 7.58614 22.8732C7.7331 23.0195 7.93314 23.1025 8.14226 23.1038C8.35138 23.1051 8.55245 23.0247 8.70124 22.8802C8.85002 22.7358 8.93434 22.5391 8.93564 22.3335C8.93589 21.892 8.84026 21.4555 8.65514 21.0532C8.47002 20.6509 8.19968 20.2921 7.8622 20.0008C8.20333 19.7137 8.47818 19.3584 8.66836 18.9585C8.85854 18.5585 8.95968 18.1233 8.965 17.6818ZM5.82082 16.1113C6.13272 16.1133 6.43704 16.2062 6.6953 16.3782C6.95356 16.5502 7.15415 16.7936 7.27172 17.0777C7.38929 17.3618 7.41855 17.6738 7.35581 17.9742C7.29306 18.2746 7.14112 18.5499 6.91921 18.7654C6.6973 18.9808 6.41537 19.1267 6.10909 19.1846C5.80281 19.2425 5.48593 19.2098 5.19851 19.0906C4.9111 18.9714 4.66606 18.7712 4.49439 18.5151C4.32272 18.259 4.23212 17.9586 4.23406 17.6519C4.23665 17.2407 4.40529 16.8474 4.70286 16.5585C5.00044 16.2695 5.40258 16.1087 5.82082 16.1113V16.1113Z" fill="#8B97AE"/>
<path d="M22.0541 20.0905C22.5425 19.6795 22.8915 19.1315 23.0543 18.5199C23.2171 17.9084 23.1859 17.2625 22.9649 16.6688C22.7439 16.0751 22.3436 15.5619 21.8178 15.1981C21.2919 14.8342 20.6655 14.6371 20.0226 14.633C19.3797 14.629 18.7509 14.8182 18.2205 15.1754C17.69 15.5326 17.2834 16.0406 17.0549 16.6315C16.8264 17.2224 16.7871 17.8678 16.9421 18.4814C17.0972 19.0949 17.4392 19.6473 17.9224 20.0644C17.5813 20.3514 17.3064 20.7068 17.1162 21.1067C16.9261 21.5066 16.8249 21.9419 16.8196 22.3834C16.8183 22.589 16.9001 22.7867 17.0471 22.933C17.194 23.0794 17.3941 23.1623 17.6032 23.1636C17.8123 23.165 18.0134 23.0845 18.1622 22.9401C18.311 22.7956 18.3953 22.5989 18.3966 22.3933C18.3992 21.9821 18.5678 21.5888 18.8654 21.2998C19.163 21.0109 19.5651 20.8501 19.9834 20.8527C20.4016 20.8554 20.8017 21.0213 21.0956 21.3139C21.3895 21.6066 21.5531 22.002 21.5506 22.4132C21.5493 22.6189 21.6311 22.8166 21.778 22.9629C21.925 23.1092 22.125 23.1922 22.3341 23.1935C22.5433 23.1948 22.7443 23.1144 22.8931 22.9699C23.0419 22.8255 23.1262 22.6288 23.1275 22.4232C23.1278 21.9817 23.0322 21.5452 22.847 21.1429C22.6619 20.7406 22.3916 20.3818 22.0541 20.0905V20.0905ZM18.426 17.7416C18.4279 17.435 18.5223 17.1358 18.6972 16.8819C18.872 16.628 19.1196 16.4308 19.4085 16.3153C19.6974 16.1997 20.0147 16.171 20.3202 16.2328C20.6257 16.2945 20.9058 16.444 21.1249 16.6622C21.3441 16.8805 21.4926 17.1577 21.5515 17.4589C21.6105 17.76 21.5773 18.0716 21.4561 18.3542C21.335 18.6367 21.1313 18.8776 20.8709 19.0464C20.6105 19.2151 20.305 19.3041 19.9931 19.3022C19.5749 19.2995 19.1748 19.1336 18.8809 18.841C18.587 18.5483 18.4234 18.1529 18.426 17.7416Z" fill="#8B97AE"/>
<path d="M14.4888 16.9414L13.7003 16.9364L13.7247 13.06C13.726 12.8544 13.6442 12.6567 13.4973 12.5103C13.3503 12.364 13.1503 12.2811 12.9412 12.2798C12.732 12.2784 12.531 12.3588 12.3822 12.5033C12.2334 12.6478 12.1491 12.8444 12.1478 13.0501L12.1233 16.9265L11.3348 16.9215C11.1257 16.9202 10.9246 17.0006 10.7758 17.145C10.627 17.2895 10.5427 17.4862 10.5414 17.6918C10.5401 17.8974 10.622 18.0951 10.7689 18.2414C10.9159 18.3878 11.1159 18.4707 11.325 18.472L14.479 18.4919C14.6881 18.4933 14.8892 18.4129 15.038 18.2684C15.1868 18.1239 15.2711 17.9273 15.2724 17.7216C15.2737 17.516 15.1918 17.3183 15.0449 17.172C14.8979 17.0257 14.6979 16.9427 14.4888 16.9414Z" fill="#8B97AE"/>
</svg>
